<?xml version="1.0" encoding="UTF-8" standalone="no" ?>
<!DOCTYPE svg PUBLIC "-//W3C//DTD SVG 1.1//EN" "http://www.w3.org/Graphics/SVG/1.1/DTD/svg11.dtd">
<svg xmlns="http://www.w3.org/2000/svg" xmlns:xlink="http://www.w3.org/1999/xlink" version="1.1" width="640" height="480" viewBox="0 0 640 480" xml:space="preserve">
<desc>Created with Fabric.js 3.6.6</desc>
<defs>
</defs>
<g transform="matrix(3.09 0 0 3.09 335.79 170.26)"  >
<path style="stroke: none; stroke-width: 1; stroke-dasharray: none; stroke-linecap: square; stroke-dashoffset: 0; stroke-linejoin: bevel; stroke-miterlimit: 4; fill: rgb(0,0,0); fill-rule: nonzero; opacity: 1;" vector-effect="non-scaling-stroke"  transform=" translate(-54.22, -57.31)" d="M 63.693 43.359 L 44.74 43.359 L 17.544 71.27 L 51.84 71.27 L 52.213 65.647 L 56.218 65.647 L 56.592 71.27 L 90.889 71.27 L 63.693 43.359 M 53.602 44.751 L 54.831 44.751 L 55.232 50.818 L 53.197 50.818 L 53.602 44.751 M 52.413 62.634 L 53.1 52.316 L 55.334 52.316 L 56.02 62.632 L 52.413 62.634" stroke-linecap="round" />
</g>
<g transform="matrix(3.09 0 0 3.09 392.18 116.13)"  >
<path style="stroke: none; stroke-width: 1; stroke-dasharray: none; stroke-linecap: square; stroke-dashoffset: 0; stroke-linejoin: bevel; stroke-miterlimit: 4; fill: rgb(0,0,0); fill-rule: nonzero; opacity: 1;" vector-effect="non-scaling-stroke"  transform=" translate(-72.46, -39.81)" d="M 78.559 34.833 L 72.455 28.73 L 66.353 34.833 L 71.832 40.312 L 71.832 50.881 L 73.077 50.881 L 73.077 40.311 L 78.559 34.833 M 70.977 37.012 L 70.194 37.012 L 70.194 33.241 L 73.522 33.241 L 72.585 32.305 L 73.712 32.305 L 75.037 33.632 L 73.712 34.959 L 72.585 34.959 L 73.522 34.023 L 70.977 34.023 L 70.977 37.012 L 70.977 37.012" stroke-linecap="round" />
</g>
<g transform="matrix(3.09 0 0 3.09 199.25 144.82)"  >
<path style="stroke: none; stroke-width: 1; stroke-dasharray: none; stroke-linecap: square; stroke-dashoffset: 0; stroke-linejoin: bevel; stroke-miterlimit: 4; fill: rgb(0,0,0); fill-rule: nonzero; opacity: 1;" vector-effect="non-scaling-stroke"  transform=" translate(-10.06, -49.09)" d="M 20.111 59.893 L 14.535 50.626 L 17.095 50.626 L 12.873 43.609 L 14.983 43.609 L 10.056 35.422 L 5.127 43.609 L 7.238 43.609 L 3.017 50.626 L 5.576 50.626 L 0 59.893 L 7.934 59.893 L 7.934 62.752 L 12.177 62.752 L 12.177 59.893 L 20.111 59.893" stroke-linecap="round" />
</g>
<g transform="matrix(3.09 0 0 3.09 257.79 112.1)"  >
<path style="stroke: none; stroke-width: 1; stroke-dasharray: none; stroke-linecap: square; stroke-dashoffset: 0; stroke-linejoin: bevel; stroke-miterlimit: 4; fill: rgb(0,0,0); fill-rule: nonzero; opacity: 1;" vector-effect="non-scaling-stroke"  transform=" translate(-28.99, -38.5)" d="M 35.595 45.602 L 31.932 39.515 L 33.614 39.515 L 30.841 34.906 L 32.227 34.906 L 28.989 29.527 L 25.752 34.906 L 27.139 34.906 L 24.366 39.515 L 26.047 39.515 L 22.384 45.602 L 27.597 45.602 L 27.597 47.481 L 30.383 47.481 L 30.383 45.602 L 35.595 45.602" stroke-linecap="round" />
</g>
<g transform="matrix(3.09 0 0 3.09 447.91 134.15)"  >
<path style="stroke: none; stroke-width: 1; stroke-dasharray: none; stroke-linecap: square; stroke-dashoffset: 0; stroke-linejoin: bevel; stroke-miterlimit: 4; fill: rgb(0,0,0); fill-rule: nonzero; opacity: 1;" vector-effect="non-scaling-stroke"  transform=" translate(-90.48, -45.63)" d="M 98.463 54.214 L 94.037 46.854 L 96.068 46.854 L 92.717 41.285 L 94.395 41.285 L 90.479 34.783 L 86.568 41.285 L 88.244 41.285 L 84.893 46.854 L 86.923 46.854 L 82.497 54.214 L 88.795 54.214 L 88.795 56.484 L 92.164 56.484 L 92.164 54.214 L 98.463 54.214" stroke-linecap="round" />
</g>
<g transform="matrix(3.09 0 0 3.09 424.84 170.26)"  >
<path style="stroke: none; stroke-width: 1; stroke-dasharray: none; stroke-linecap: square; stroke-dashoffset: 0; stroke-linejoin: bevel; stroke-miterlimit: 4; fill: rgb(0,0,0); fill-rule: nonzero; opacity: 1;" vector-effect="non-scaling-stroke"  transform=" translate(-83.02, -57.31)" d="M 100 71.27 L 66.037 43.359 L 97.376 71.27 L 100 71.27" stroke-linecap="round" />
</g>
<g transform="matrix(3.09 0 0 3.09 246.73 170.26)"  >
<path style="stroke: none; stroke-width: 1; stroke-dasharray: none; stroke-linecap: square; stroke-dashoffset: 0; stroke-linejoin: bevel; stroke-miterlimit: 4; fill: rgb(0,0,0); fill-rule: nonzero; opacity: 1;" vector-effect="non-scaling-stroke"  transform=" translate(-25.41, -57.31)" d="M 8.432 71.27 L 11.056 71.27 L 42.396 43.359 L 8.432 71.27" stroke-linecap="round" />
</g>
<g transform="matrix(9.64 0 0 9.64 322.75 299.94)"  >
<path style="stroke: none; stroke-width: 1; stroke-dasharray: none; stroke-linecap: square; stroke-dashoffset: 0; stroke-linejoin: bevel; stroke-miterlimit: 4; fill: rgb(0,0,0); fill-rule: nonzero; opacity: 1;" vector-effect="non-scaling-stroke"  transform=" translate(-33.22, -13.89)" d="M 5.44 20 L 1.14 20 L 1.14 7.76 L 5.44 7.76 C 9.18 7.76 11.74 10.2 11.74 13.88 C 11.74 17.66 9.04 20 5.44 20 L 5.44 20 M 4.14 10.54 L 4.14 17.22 L 5.44 17.22 C 7.56 17.22 8.74 15.88 8.74 13.88 C 8.74 13.42 8.68 13 8.56 12.58 C 8.04 11.12 6.9 10.54 5.44 10.54 L 4.14 10.54 L 4.14 10.54 M 22.2695 17.32 C 24.4495 17.32 25.5695 15.92 25.5695 13.88 C 25.5695 11.72 24.3695 10.44 22.2695 10.44 C 20.0695 10.44 18.9695 11.84 18.9695 13.88 C 18.9695 16 20.1895 17.32 22.2695 17.32 M 22.2695 20.1 C 18.5095 20.1 15.9695 17.54 15.9695 13.88 C 15.9695 10.1 18.6295 7.66 22.2695 7.66 C 26.0495 7.66 28.5695 10.2 28.5695 13.88 C 28.5695 17.68 25.9295 20.1 22.2695 20.1 M 36.219 10.58 L 36.219 13.5 L 39.019 13.5 C 39.939 13.5 40.479 12.96 40.479 12.04 C 40.479 11.12 39.939 10.58 39.019 10.58 L 36.219 10.58 M 40.759 15.48 C 41.319 16.24 41.879 17 42.459 17.74 C 43.019 18.48 43.579 19.24 44.139 20 L 40.479 20 C 39.759 19.04 39.059 18.08 38.359 17.12 C 37.659 16.18 36.939 15.22 36.219 14.26 L 36.219 20 L 33.219 20 L 33.219 7.76 L 39.019 7.76 C 41.299 7.76 43.239 9.5 43.239 11.8 C 43.239 13.42 42.239 14.84 40.759 15.48 L 40.759 15.48 M 48.1685 7.76 L 51.1685 7.76 L 51.1685 20 L 48.1685 20 L 48.1685 7.76 M 55.618 19.7 L 55.618 16.88 C 55.858 16.94 56.158 17 56.498 17.04 C 56.838 17.1 57.198 17.14 57.578 17.16 C 57.958 17.18 58.338 17.2 58.738 17.22 C 59.138 17.24 59.518 17.26 59.858 17.26 C 60.798 17.26 61.458 17.2 61.858 17.1 C 62.238 17 62.438 16.82 62.438 16.54 C 62.438 16.3 62.258 16.12 62.078 15.98 C 61.418 15.54 60.638 15.36 59.858 15.18 C 57.658 14.74 55.638 13.86 55.638 11.34 C 55.638 8.36 58.458 7.66 60.878 7.66 C 62.218 7.66 63.578 7.8 64.878 8.12 L 64.878 10.94 C 64.678 10.88 64.418 10.84 64.098 10.78 C 63.758 10.74 63.418 10.7 63.038 10.66 C 62.258 10.58 61.518 10.54 60.738 10.54 C 60.298 10.54 59.378 10.54 58.958 10.7 C 58.678 10.8 58.498 10.92 58.498 11.24 C 58.498 11.4 58.538 11.54 58.618 11.66 C 58.698 11.8 58.838 11.9 59.018 12 C 59.558 12.3 60.258 12.48 60.858 12.62 C 61.358 12.74 61.858 12.88 62.378 13.02 C 64.138 13.5 65.298 14.48 65.298 16.36 C 65.298 19.46 62.218 20.12 59.738 20.12 C 58.378 20.12 56.958 20.02 55.618 19.7 L 55.618 19.7" stroke-linecap="round" />
</g>
<g transform="matrix(0.96 0 0 0.96 322.75 398.22)"  >
<path style="stroke: none; stroke-width: 1; stroke-dasharray: none; stroke-linecap: square; stroke-dashoffset: 0; stroke-linejoin: bevel; stroke-miterlimit: 4; fill: rgb(0,0,0); fill-rule: nonzero; opacity: 1;" vector-effect="non-scaling-stroke"  transform=" translate(-310.79, -13.15)" d="M 0.84 20 L 0.84 6.3 L 6.44 6.3 C 10.66 6.3 13.42 9.3 13.42 13.08 C 13.42 16.94 10.54 20 6.28 20 L 0.84 20 L 0.84 20 M 6.28 9.14 L 3.94 9.14 L 3.94 17.16 L 6.38 17.16 C 8.6 17.16 10.3 15.44 10.3 13.12 C 10.3 10.84 8.6 9.14 6.28 9.14 L 6.28 9.14 M 30.027 9.14 L 27.747 9.14 L 27.747 12.8 L 29.927 12.8 C 31.267 12.8 32.087 12.04 32.087 10.98 C 32.087 9.92 31.407 9.14 30.027 9.14 L 30.027 9.14 M 27.747 15.34 L 27.747 20 L 24.647 20 L 24.647 6.3 L 30.487 6.3 C 33.407 6.3 35.207 8.18 35.207 10.86 C 35.207 13 33.787 14.78 31.467 15.24 L 35.827 20 L 31.787 20 L 27.747 15.34 M 53.754 20.28 C 49.754 20.28 46.494 17.22 46.494 13.16 C 46.494 9.08 49.754 6.02 53.754 6.02 C 57.854 6.02 61.014 9.08 61.014 13.14 C 61.014 17.22 57.854 20.28 53.754 20.28 L 53.754 20.28 M 53.754 17.4 C 56.074 17.4 57.854 15.56 57.854 13.14 C 57.854 10.76 56.074 8.9 53.754 8.9 C 51.434 8.9 49.654 10.76 49.654 13.16 C 49.654 15.56 51.434 17.4 53.754 17.4 M 80.741 20 L 75.221 11.32 L 75.221 20 L 72.241 20 L 72.241 6.3 L 75.621 6.3 L 81.141 15 L 81.141 6.3 L 84.121 6.3 L 84.121 20 L 80.741 20 M 95.668 20 L 95.668 6.3 L 105.688 6.3 L 105.688 9.1 L 98.768 9.1 L 98.768 11.68 L 105.168 11.68 L 105.168 14.4 L 98.768 14.4 L 98.768 17.2 L 105.708 17.2 L 105.708 20 L 95.668 20 L 95.668 20 M 136.142 9.14 L 133.862 9.14 L 133.862 12.8 L 136.042 12.8 C 137.382 12.8 138.202 12.04 138.202 10.98 C 138.202 9.92 137.522 9.14 136.142 9.14 M 133.862 15.34 L 133.862 20 L 130.762 20 L 130.762 6.3 L 136.602 6.3 C 139.522 6.3 141.322 8.18 141.322 10.86 C 141.322 13 139.902 14.78 137.582 15.24 L 141.942 20 L 137.902 20 L 133.862 15.34 M 159.869 20.28 C 155.869 20.28 152.609 17.22 152.609 13.16 C 152.609 9.08 155.869 6.02 159.869 6.02 C 163.969 6.02 167.129 9.08 167.129 13.14 C 167.129 17.22 163.969 20.28 159.869 20.28 M 159.869 17.4 C 162.189 17.4 163.969 15.56 163.969 13.14 C 163.969 10.76 162.189 8.9 159.869 8.9 C 157.549 8.9 155.769 10.76 155.769 13.16 C 155.769 15.56 157.549 17.4 159.869 17.4 M 186.056 14.9 L 184.276 9.54 L 182.496 14.9 L 186.056 14.9 M 187.756 20 L 186.976 17.64 L 181.596 17.64 L 180.816 20 L 177.636 20 L 182.476 6.3 L 186.276 6.3 L 191.096 20 L 187.756 20 L 187.756 20 M 201.923 20 L 201.923 6.3 L 207.523 6.3 C 211.743 6.3 214.503 9.3 214.503 13.08 C 214.503 16.94 211.623 20 207.363 20 L 201.923 20 M 207.363 9.14 L 205.023 9.14 L 205.023 17.16 L 207.463 17.16 C 209.683 17.16 211.383 15.44 211.383 13.12 C 211.383 10.84 209.683 9.14 207.363 9.14 L 207.363 9.14 M 242.637 20 L 239.537 20 L 239.537 6.3 L 242.637 6.3 L 242.637 20 M 262.664 20 L 257.144 11.32 L 257.144 20 L 254.164 20 L 254.164 6.3 L 257.544 6.3 L 263.064 15 L 263.064 6.3 L 266.044 6.3 L 266.044 20 L 262.664 20 M 286.751 15.14 L 280.691 15.14 L 280.691 20 L 277.591 20 L 277.591 6.3 L 287.271 6.3 L 287.271 9.14 L 280.691 9.14 L 280.691 12.42 L 286.751 12.42 L 286.751 15.14 M 305.438 20.28 C 301.438 20.28 298.178 17.22 298.178 13.16 C 298.178 9.08 301.438 6.02 305.438 6.02 C 309.538 6.02 312.698 9.08 312.698 13.14 C 312.698 17.22 309.538 20.28 305.438 20.28 M 305.438 17.4 C 307.758 17.4 309.538 15.56 309.538 13.14 C 309.538 10.76 307.758 8.9 305.438 8.9 C 303.118 8.9 301.338 10.76 301.338 13.16 C 301.338 15.56 303.118 17.4 305.438 17.4 M 329.305 9.14 L 327.025 9.14 L 327.025 12.8 L 329.205 12.8 C 330.545 12.8 331.365 12.04 331.365 10.98 C 331.365 9.92 330.685 9.14 329.305 9.14 M 327.025 15.34 L 327.025 20 L 323.925 20 L 323.925 6.3 L 329.765 6.3 C 332.685 6.3 334.485 8.18 334.485 10.86 C 334.485 13 333.065 14.78 330.745 15.24 L 335.105 20 L 331.065 20 L 327.025 15.34 M 352.772 20 L 349.072 11.82 L 349.072 20 L 346.092 20 L 346.092 6.3 L 349.812 6.3 L 353.832 15.36 L 357.852 6.3 L 361.572 6.3 L 361.572 20 L 358.532 20 L 358.532 11.78 L 354.812 20 L 352.772 20 L 352.772 20 M 380.819 14.9 L 379.039 9.54 L 377.259 14.9 L 380.819 14.9 M 382.519 20 L 381.739 17.64 L 376.359 17.64 L 375.579 20 L 372.399 20 L 377.239 6.3 L 381.039 6.3 L 385.859 20 L 382.519 20 M 403.326 20 L 400.226 20 L 400.226 9.14 L 396.146 9.14 L 396.146 6.3 L 407.406 6.3 L 407.406 9.14 L 403.326 9.14 L 403.326 20 L 403.326 20 M 421.513 20 L 418.413 20 L 418.413 6.3 L 421.513 6.3 L 421.513 20 M 439.98 20.28 C 435.98 20.28 432.72 17.22 432.72 13.16 C 432.72 9.08 435.98 6.02 439.98 6.02 C 444.08 6.02 447.24 9.08 447.24 13.14 C 447.24 17.22 444.08 20.28 439.98 20.28 M 439.98 17.4 C 442.3 17.4 444.08 15.56 444.08 13.14 C 444.08 10.76 442.3 8.9 439.98 8.9 C 437.66 8.9 435.88 10.76 435.88 13.16 C 435.88 15.56 437.66 17.4 439.98 17.4 M 466.967 20 L 461.447 11.32 L 461.447 20 L 458.467 20 L 458.467 6.3 L 461.847 6.3 L 467.367 15 L 467.367 6.3 L 470.347 6.3 L 470.347 20 L 466.967 20 M 500.681 20.26 C 497.221 20.26 495.321 18.54 495.141 15.72 L 498.241 15.72 C 498.301 16.76 498.901 17.8 500.761 17.8 C 502.321 17.8 503.121 17.18 503.121 16.32 C 503.121 15.26 501.781 14.98 500.221 14.64 C 498.041 14.12 495.381 13.48 495.381 10.22 C 495.381 7.82 497.241 6.04 500.521 6.04 C 503.861 6.04 505.701 7.86 505.901 10.54 L 502.781 10.54 C 502.721 9.44 502.121 8.56 500.441 8.56 C 499.201 8.56 498.381 9.06 498.381 9.96 C 498.381 11.12 499.741 11.44 501.301 11.8 C 503.541 12.3 506.221 12.86 506.221 15.94 C 506.221 18.44 504.261 20.26 500.681 20.26 L 500.681 20.26 M 524.768 20 L 521.648 20 L 521.648 14.88 L 516.668 6.3 L 520.088 6.3 L 523.248 12.06 L 526.428 6.3 L 529.748 6.3 L 524.768 14.9 L 524.768 20 M 545.595 20.26 C 542.135 20.26 540.235 18.54 540.055 15.72 L 543.155 15.72 C 543.215 16.76 543.815 17.8 545.675 17.8 C 547.235 17.8 548.035 17.18 548.035 16.32 C 548.035 15.26 546.695 14.98 545.135 14.64 C 542.955 14.12 540.295 13.48 540.295 10.22 C 540.295 7.82 542.155 6.04 545.435 6.04 C 548.775 6.04 550.615 7.86 550.815 10.54 L 547.695 10.54 C 547.635 9.44 547.035 8.56 545.355 8.56 C 544.115 8.56 543.295 9.06 543.295 9.96 C 543.295 11.12 544.655 11.44 546.215 11.8 C 548.455 12.3 551.135 12.86 551.135 15.94 C 551.135 18.44 549.175 20.26 545.595 20.26 L 545.595 20.26 M 568.882 20 L 565.782 20 L 565.782 9.14 L 561.702 9.14 L 561.702 6.3 L 572.962 6.3 L 572.962 9.14 L 568.882 9.14 L 568.882 20 M 583.969 20 L 583.969 6.3 L 593.989 6.3 L 593.989 9.1 L 587.069 9.1 L 587.069 11.68 L 593.469 11.68 L 593.469 14.4 L 587.069 14.4 L 587.069 17.2 L 594.009 17.2 L 594.009 20 L 583.969 20 L 583.969 20 M 611.936 20 L 608.236 11.82 L 608.236 20 L 605.256 20 L 605.256 6.3 L 608.976 6.3 L 612.996 15.36 L 617.016 6.3 L 620.736 6.3 L 620.736 20 L 617.696 20 L 617.696 11.78 L 613.976 20 L 611.936 20 L 611.936 20" stroke-linecap="round" />
</g>
<g transform="matrix(1.31 0 0 1.31 336.42 71.36)"  >
<path style="stroke: none; stroke-width: 1; stroke-dasharray: none; stroke-linecap: square; stroke-dashoffset: 0; stroke-linejoin: bevel; stroke-miterlimit: 4; fill: rgb(0,0,0); fill-rule: nonzero; opacity: 1;" vector-effect="non-scaling-stroke"  transform=" translate(-50, -1002.36)" d="M 12.7812 987.373 C 12.1457 987.445 11.5558 987.841 11.25 988.401 C 7.03817 988.414 1 988.524 1 989.399 C 1 990.257 6.79939 990.349 11 990.366 L 11 991.332 L 8.9375 991.394 C 7.91134 991.426 6.99959 992.365 7 993.389 L 7 994.387 C 7.0137 995.381 7.8805 996.289 8.875 996.351 L 36.4062 998.253 L 36.5938 998.97 C 31.1258 1003.85 30 1009.2 30 1015.34 C 29.9851 1016.39 30.9433 1017.36 32 1017.36 C 33.0567 1017.36 34.0149 1016.39 34 1015.34 C 34 1010.27 34.4424 1007.01 37.7188 1003.46 L 39.3125 1009.88 C 39.6624 1011.28 40.2509 1012.4 41.125 1013.19 C 41.9991 1013.98 43.1304 1014.34 44.0938 1014.34 L 56.0312 1014.34 C 57.0113 1014.34 58.0997 1013.92 58.9375 1013.16 C 59.7753 1012.4 60.3929 1011.36 60.875 1010.01 C 61.396 1007.87 61.8802 1005.68 62.375 1003.52 C 65.5818 1007.04 66 1010.31 66 1015.34 C 65.9851 1016.39 66.9433 1017.36 68 1017.36 C 69.0567 1017.36 70.0149 1016.39 70 1015.34 C 70 1009.21 68.8907 1003.85 63.4375 998.97 L 63.5938 998.253 L 91.125 996.351 C 92.1195 996.289 92.9863 995.381 93 994.387 L 93 993.389 C 93.0004 992.365 92.0887 991.426 91.0625 991.394 L 89 991.332 L 89 990.366 C 93.2006 990.349 99 990.257 99 989.399 C 99 988.524 92.9618 988.415 88.75 988.401 C 88.3739 987.713 87.5623 987.289 86.7812 987.373 C 86.1457 987.445 85.5558 987.841 85.25 988.401 C 81.0382 988.414 75 988.524 75 989.399 C 75 990.257 80.7994 990.349 85 990.366 L 85 991.176 L 63.4062 990.428 C 62.6718 989.207 61.1675 988.42 60 988.401 L 40 988.401 C 38.375 988.548 37.412 989.269 36.5938 990.428 L 15 991.176 L 15 990.366 C 19.2006 990.349 25 990.257 25 989.399 C 25 988.524 18.9618 988.415 14.75 988.401 C 14.3739 987.713 13.5623 987.289 12.7812 987.373 M 50 999.376 C 51.625 999.376 52.5844 999.784 53.3438 1000.4 C 54.1031 1001.03 54.7077 1001.95 55.125 1003.15 C 55.8552 1005.24 55.9496 1008.01 55.9688 1010.35 L 44.0938 1010.35 C 44.067 1010.35 44.0504 1010.35 44.0312 1010.35 C 44.0504 1008.01 44.1448 1005.24 44.875 1003.15 C 45.2923 1001.95 45.8969 1001.03 46.6562 1000.4 C 47.4156 999.784 48.375 999.376 50 999.376 M 50 1000.37 C 47.7909 1000.37 46 1002.16 46 1004.36 C 46 1006.57 47.7909 1008.36 50 1008.36 C 52.2091 1008.36 54 1006.57 54 1004.36 C 54 1002.16 52.2091 1000.37 50 1000.37 M 50 1002.37 C 51.1046 1002.37 52 1003.26 52 1004.36 C 52 1005.47 51.1046 1006.36 50 1006.36 C 48.8954 1006.36 48 1005.47 48 1004.36 C 48 1003.26 48.8954 1002.37 50 1002.37" stroke-linecap="round" />
</g>
</svg>